<svg xmlns="http://www.w3.org/2000/svg" xmlns:xlink="http://www.w3.org/1999/xlink" width="500" zoomAndPan="magnify" viewBox="0 0 375 374.999991" height="500" preserveAspectRatio="xMidYMid meet" version="1.0"><defs><clipPath id="f7c1d82fb9"><path d="M 23.960938 0 L 374.960938 0 L 374.960938 351 L 23.960938 351 Z M 23.960938 0 " clip-rule="nonzero"/></clipPath></defs><g clip-path="url(#f7c1d82fb9)"><path fill="#603f8b" d="M 362.035156 0.855469 L 324.890625 17.765625 C 322.511719 18.863281 320.316406 20.363281 318.449219 22.230469 L 257.917969 82.796875 L 49.460938 57.800781 C 45.691406 57.363281 41.886719 58.644531 39.214844 61.351562 L 27.613281 72.953125 C 21.464844 79.101562 23.367188 89.496094 31.308594 93.042969 L 180.695312 160.015625 L 137.804688 202.90625 L 62.890625 202.90625 C 59.597656 202.90625 56.449219 204.226562 54.109375 206.53125 L 47.851562 212.824219 C 41.628906 219.046875 43.679688 229.550781 51.730469 232.992188 L 114.933594 260.074219 L 142.015625 323.273438 C 145.453125 331.328125 155.996094 333.375 162.179688 327.15625 L 168.472656 320.859375 C 170.816406 318.519531 172.097656 315.371094 172.097656 312.078125 L 172.097656 237.164062 L 214.988281 194.269531 L 281.960938 343.695312 C 285.511719 351.636719 295.90625 353.542969 302.050781 347.394531 L 313.652344 335.792969 C 316.363281 333.082031 317.644531 329.3125 317.203125 325.546875 L 292.171875 117.089844 L 352.738281 56.519531 C 354.605469 54.652344 356.105469 52.496094 357.203125 50.078125 L 374.113281 12.933594 C 377.664062 5.285156 369.757812 -2.65625 362.035156 0.855469 Z M 362.035156 0.855469 " fill-opacity="1" fill-rule="nonzero"/></g></svg>